<svg width="54" height="60" viewBox="0 0 54 60" fill="none" xmlns="http://www.w3.org/2000/svg">
    <path d="M28.2058 0.0495899C31.5799 0 34.9282 0.0247949 38.2766 0C38.4826 3.79362 39.8992 7.66163 42.784 10.3395C45.6687 13.0917 49.7383 14.3563 53.7048 14.7778V24.7701C49.9958 24.6462 46.2611 23.9023 42.887 22.365C41.4189 21.7204 40.0538 20.9021 38.7144 20.0591C38.6887 27.2992 38.7402 34.5393 38.6629 41.7547C38.4569 45.2259 37.2721 48.6724 35.1858 51.5239C31.8117 56.2845 25.9649 59.3839 19.9637 59.483C16.2805 59.6814 12.5973 58.7144 9.45498 56.9291C4.25216 53.9786 0.594723 48.5733 0.0538356 42.7712C0.00232245 41.5315 -0.0234341 40.2918 0.028079 39.0768C0.491697 34.3658 2.91281 29.8531 6.67327 26.7785C10.9489 23.2081 16.9244 21.4972 22.5136 22.5138C22.5651 26.1834 22.4105 29.8531 22.4105 33.5227C19.8606 32.7293 16.8729 32.9525 14.6321 34.4402C13.0094 35.4567 11.7731 37.0188 11.1292 38.7793C10.5883 40.0438 10.7428 41.4323 10.7686 42.7712C11.3867 46.8376 15.4563 50.2593 19.7834 49.8874C22.6681 49.8626 25.4241 48.2509 26.9179 45.8954C27.4073 45.0772 27.9482 44.2341 27.974 43.2671C28.2315 38.8289 28.1285 34.4154 28.1542 29.9771C28.18 19.9847 28.1285 10.0171 28.2058 0.0495899Z" fill="white"/>
</svg>
