<svg width="69" height="74" viewBox="0 0 69 74" fill="none" xmlns="http://www.w3.org/2000/svg">
    <path d="M23.0843 61.0809C27.3088 61.232 31.5189 60.4763 35.4656 58.8585C39.4123 57.2407 43.0156 54.7935 46.0625 51.6617C49.1094 48.5299 51.5381 44.7769 53.2051 40.6246C54.8721 36.4723 55.7435 32.0049 55.7679 27.4864C57.7039 24.9253 59.1415 21.9764 59.9962 18.8129C60.06 18.563 60.0548 18.2987 59.9814 18.0518C59.9079 17.8049 59.7692 17.586 59.582 17.4214C59.3949 17.2568 59.1672 17.1536 58.9264 17.1241C58.6856 17.0947 58.442 17.1402 58.2249 17.2554C57.212 17.7765 56.0717 17.9449 54.9647 17.7367C53.8576 17.5285 52.8395 16.9542 52.0538 16.0948C51.0509 14.9208 49.8377 13.9739 48.4862 13.3102C47.1347 12.6466 45.6723 12.2797 44.1856 12.2312C42.699 12.1828 41.2184 12.4539 39.8316 13.0284C38.4448 13.6028 37.1799 14.469 36.112 15.5756C34.6498 17.0894 33.5788 18.9818 33.0031 21.0689C32.4274 23.156 32.3665 25.3668 32.8265 27.4864C23.2557 28.0972 16.6847 23.2413 11.4279 16.5835C11.2699 16.3923 11.0633 16.2544 10.8333 16.1867C10.6033 16.1189 10.3598 16.1242 10.1326 16.202C9.90534 16.2797 9.7042 16.4265 9.55371 16.6244C9.40321 16.8223 9.30989 17.0628 9.28513 17.3164C8.28368 23.2548 9.00609 29.3785 11.3553 34.8652C13.7046 40.3519 17.5682 44.9387 22.4272 48.0096C19.1692 52.0038 14.594 54.4984 9.65654 54.9728C9.39202 55.0197 9.14783 55.1539 8.95816 55.3565C8.76848 55.5591 8.64281 55.82 8.59873 56.1027C8.55465 56.3854 8.59437 56.6758 8.71232 56.9332C8.83028 57.1906 9.02057 57.4022 9.25656 57.5382C13.5521 59.833 18.2824 61.0449 23.0843 61.0809Z" fill="white"/>
</svg>
