<svg width="64" height="43" viewBox="0 0 64 43" fill="none" xmlns="http://www.w3.org/2000/svg">
    <path d="M62.1675 6.49217C61.4132 3.95219 59.3253 1.96012 56.6359 1.25593C51.6839 6.00416e-05 31.7768 6.03452e-05 31.7768 6.03452e-05C31.7768 6.03452e-05 11.9073 -0.0300658 6.90374 1.25593C4.22828 1.962 2.13038 3.95219 1.38411 6.49217C0.445319 11.3066 -0.0211 16.1795 0.000732361 21.0749C-0.00919145 25.9384 0.455243 30.8037 1.38411 35.588C2.13038 38.128 4.22828 40.1201 6.90374 40.8356C11.8557 42.0914 31.7768 42.0914 31.7768 42.0914C31.7768 42.0914 51.6343 42.0914 56.6359 40.8356C59.3253 40.1201 61.4132 38.1299 62.1675 35.588C63.0785 30.8037 63.5231 25.9384 63.4913 21.0749C63.5231 16.1795 63.0884 11.3066 62.1675 6.49217ZM25.4176 30.0882V12.0221L41.9884 21.0749L25.4176 30.0882Z" fill="white"/>
</svg>
